<?xml version="1.0" encoding="UTF-8"?>
<!DOCTYPE svg PUBLIC "-//W3C//DTD SVG 1.1//EN" "http://www.w3.org/Graphics/SVG/1.1/DTD/svg11.dtd">
<svg xmlns="http://www.w3.org/2000/svg" version="1.1" width="344px" height="60px" style="shape-rendering:geometricPrecision; text-rendering:geometricPrecision; image-rendering:optimizeQuality; fill-rule:evenodd; clip-rule:evenodd" xmlns:xlink="http://www.w3.org/1999/xlink">
<g><path style="opacity:1" fill="#fefefc" d="M -0.5,-0.5 C 3.5,-0.5 7.5,-0.5 11.5,-0.5C 11.988,2.71066 11.3213,5.544 9.5,8C 10.1667,8.33333 10.8333,8.66667 11.5,9C 10.6035,25.6376 10.2701,42.471 10.5,59.5C 6.83333,59.5 3.16667,59.5 -0.5,59.5C -0.5,39.5 -0.5,19.5 -0.5,-0.5 Z"/></g>
<g><path style="opacity:0.992" fill="#f8fbfa" d="M 11.5,-0.5 C 25.1667,-0.5 38.8333,-0.5 52.5,-0.5C 52.3114,3.34821 52.3114,7.01488 52.5,10.5C 47.931,10.9739 43.931,11.9739 40.5,13.5C 40.5,28.8333 40.5,44.1667 40.5,59.5C 35.5,59.5 30.5,59.5 25.5,59.5C 25.5,44.1667 25.5,28.8333 25.5,13.5C 21.8333,13.5 18.1667,13.5 14.5,13.5C 14.5,28.8333 14.5,44.1667 14.5,59.5C 13.1667,59.5 11.8333,59.5 10.5,59.5C 10.2701,42.471 10.6035,25.6376 11.5,9C 10.8333,8.66667 10.1667,8.33333 9.5,8C 11.3213,5.544 11.988,2.71066 11.5,-0.5 Z"/></g>
<g><path style="opacity:1" fill="#f2f6f5" d="M 97.5,-0.5 C 100.833,-0.5 104.167,-0.5 107.5,-0.5C 107.5,19.5 107.5,39.5 107.5,59.5C 104.167,59.5 100.833,59.5 97.5,59.5C 97.5,39.5 97.5,19.5 97.5,-0.5 Z"/></g>
<g><path style="opacity:0.996" fill="#ecf2f2" d="M 124.5,-0.5 C 131.5,-0.5 138.5,-0.5 145.5,-0.5C 145.5,0.833333 145.5,2.16667 145.5,3.5C 142.833,3.5 140.167,3.5 137.5,3.5C 137.5,10.8333 137.5,18.1667 137.5,25.5C 135.833,25.5 134.167,25.5 132.5,25.5C 132.5,18.1667 132.5,10.8333 132.5,3.5C 129.833,3.5 127.167,3.5 124.5,3.5C 124.5,2.16667 124.5,0.833333 124.5,-0.5 Z"/></g>
<g><path style="opacity:1" fill="#f9fdfd" d="M 221.5,3.5 C 221.5,3.83333 221.5,4.16667 221.5,4.5C 220.509,10.979 220.176,17.6457 220.5,24.5C 219.5,24.5 218.5,24.5 217.5,24.5C 217.5,16.5 217.5,8.5 217.5,0.5C 218.5,0.5 219.5,0.5 220.5,0.5C 220.263,1.79105 220.596,2.79105 221.5,3.5 Z"/></g>
<g><path style="opacity:1" fill="#edf3f4" d="M 222.5,-0.5 C 229.5,-0.5 236.5,-0.5 243.5,-0.5C 243.5,0.833333 243.5,2.16667 243.5,3.5C 240.833,3.5 238.167,3.5 235.5,3.5C 235.5,10.8333 235.5,18.1667 235.5,25.5C 233.833,25.5 232.167,25.5 230.5,25.5C 230.5,18.1667 230.5,10.8333 230.5,3.5C 227.833,3.5 225.167,3.5 222.5,3.5C 222.5,2.16667 222.5,0.833333 222.5,-0.5 Z"/></g>
<g><path style="opacity:1" fill="#e9f0f3" d="M 249.5,-0.5 C 251.5,-0.5 253.5,-0.5 255.5,-0.5C 259.032,8.09526 262.365,16.7619 265.5,25.5C 261.062,26.2267 258.395,24.3934 257.5,20C 254.118,19.1764 250.784,19.343 247.5,20.5C 247.114,24.8501 244.781,26.5168 240.5,25.5C 243.096,16.7124 246.096,8.0457 249.5,-0.5 Z M 252.5,6.5 C 253.719,9.29078 255.052,12.1241 256.5,15C 254.098,15.8141 251.765,15.6474 249.5,14.5C 250.9,11.9646 251.9,9.29797 252.5,6.5 Z"/></g>
<g><path style="opacity:1" fill="#f7fafa" d="M 52.5,-0.5 C 53.5,-0.5 54.5,-0.5 55.5,-0.5C 67.7583,6.57252 79.925,13.9059 92,21.5C 92.4997,14.1742 92.6663,6.8409 92.5,-0.5C 94.1667,-0.5 95.8333,-0.5 97.5,-0.5C 97.5,19.5 97.5,39.5 97.5,59.5C 95.8333,59.5 94.1667,59.5 92.5,59.5C 92.6663,52.4921 92.4996,45.4921 92,38.5C 79.8561,45.1483 68.0228,52.1483 56.5,59.5C 55.1667,59.5 53.8333,59.5 52.5,59.5C 52.6666,43.8298 52.4999,28.1631 52,12.5C 48.27,13.4601 44.4367,13.7935 40.5,13.5C 43.931,11.9739 47.931,10.9739 52.5,10.5C 52.3114,7.01488 52.3114,3.34821 52.5,-0.5 Z M 65.5,20.5 C 70.638,23.2371 75.638,26.2371 80.5,29.5C 75.8218,32.6636 70.9884,35.6636 66,38.5C 65.5005,32.5092 65.3338,26.5092 65.5,20.5 Z"/></g>
<g><path style="opacity:0.834" fill="#ebf6f7" d="M 181.5,-0.5 C 183.167,-0.5 184.833,-0.5 186.5,-0.5C 186.5,8.16667 186.5,16.8333 186.5,25.5C 184.833,25.5 183.167,25.5 181.5,25.5C 181.5,16.8333 181.5,8.16667 181.5,-0.5 Z"/></g>
<g><path style="opacity:0.675" fill="#dbe5e7" d="M 117.5,-0.5 C 119.5,-0.5 121.5,-0.5 123.5,-0.5C 123.666,7.83999 123.5,16.1733 123,24.5C 121.301,25.4061 119.467,25.7394 117.5,25.5C 117.5,16.8333 117.5,8.16667 117.5,-0.5 Z"/></g>
<g><path style="opacity:0.745" fill="#cbd5d9" d="M 215.5,-0.5 C 217.5,-0.5 219.5,-0.5 221.5,-0.5C 221.5,0.833333 221.5,2.16667 221.5,3.5C 220.596,2.79105 220.263,1.79105 220.5,0.5C 219.5,0.5 218.5,0.5 217.5,0.5C 217.5,8.5 217.5,16.5 217.5,24.5C 218.5,24.5 219.5,24.5 220.5,24.5C 220.176,17.6457 220.509,10.979 221.5,4.5C 221.5,11.5 221.5,18.5 221.5,25.5C 219.5,25.5 217.5,25.5 215.5,25.5C 215.5,16.8333 215.5,8.16667 215.5,-0.5 Z"/></g>
<g><path style="opacity:0.941" fill="#e8f1f0" d="M 156.5,-0.5 C 161.167,-0.5 165.833,-0.5 170.5,-0.5C 181.04,6.04642 182.04,13.8798 173.5,23C 168.068,25.2047 162.402,26.038 156.5,25.5C 156.5,16.8333 156.5,8.16667 156.5,-0.5 Z M 161.5,3.5 C 170.645,2.62382 174.478,6.62382 173,15.5C 170.575,20.0628 166.742,21.7294 161.5,20.5C 161.5,14.8333 161.5,9.16667 161.5,3.5 Z"/></g>
<g><path style="opacity:1" fill="#e9f0f3" d="M 197.5,-0.5 C 200.833,-0.5 204.167,-0.5 207.5,-0.5C 208.765,0.479345 210.099,1.47934 211.5,2.5C 212.89,4.49465 212.39,5.82798 210,6.5C 198.024,0.823038 193.358,4.48971 196,17.5C 199.112,21.699 202.779,22.3656 207,19.5C 207.49,18.2068 207.657,16.8734 207.5,15.5C 204.833,15.5 202.167,15.5 199.5,15.5C 199.5,14.1667 199.5,12.8333 199.5,11.5C 204.167,11.5 208.833,11.5 213.5,11.5C 213.944,24.149 207.944,28.3157 195.5,24C 188.93,18.1749 187.763,11.3416 192,3.5C 193.812,2.02294 195.645,0.689603 197.5,-0.5 Z"/></g>
<g><path style="opacity:0.992" fill="#e9f3f6" d="M 266.5,-0.5 C 268.167,-0.5 269.833,-0.5 271.5,-0.5C 271.5,6.5 271.5,13.5 271.5,20.5C 275.167,20.5 278.833,20.5 282.5,20.5C 282.5,22.1667 282.5,23.8333 282.5,25.5C 277.167,25.5 271.833,25.5 266.5,25.5C 266.5,16.8333 266.5,8.16667 266.5,-0.5 Z"/></g>
<g><path style="opacity:1" fill="#e5eef0" d="M 201.5,59.5 C 197.5,59.5 193.5,59.5 189.5,59.5C 182.885,55.2925 180.719,49.2925 183,41.5C 188.644,32.7884 195.811,31.2884 204.5,37C 210.32,45.4017 209.32,52.9017 201.5,59.5 Z M 191.5,38.5 C 200.294,37.7214 203.794,41.7214 202,50.5C 199.928,55.1433 196.428,56.6433 191.5,55C 186.214,49.502 186.214,44.002 191.5,38.5 Z"/></g>
<g><path style="opacity:0.998" fill="#e5ecf1" d="M 320.5,59.5 C 318.5,59.5 316.5,59.5 314.5,59.5C 312.828,56.9784 311.328,54.3118 310,51.5C 308.989,50.6634 307.822,50.33 306.5,50.5C 306.5,53.5 306.5,56.5 306.5,59.5C 304.5,59.5 302.5,59.5 300.5,59.5C 300.5,51.1667 300.5,42.8333 300.5,34.5C 305.844,34.334 311.177,34.5006 316.5,35C 322.194,40.8623 321.527,45.8623 314.5,50C 317.146,52.8016 319.146,55.9683 320.5,59.5 Z M 306.5,38.5 C 308.92,38.2924 311.253,38.6258 313.5,39.5C 314.631,41.0745 314.798,42.7412 314,44.5C 311.667,45.1667 309.333,45.8333 307,46.5C 306.503,43.854 306.336,41.1873 306.5,38.5 Z"/></g>
<g><path style="opacity:1" fill="#e8eff3" d="M 291.5,59.5 C 287.5,59.5 283.5,59.5 279.5,59.5C 273.472,55.4253 271.305,49.7586 273,42.5C 277.662,33.7243 284.496,31.5576 293.5,36C 300.58,44.5805 299.914,52.4139 291.5,59.5 Z M 281.5,38.5 C 288.68,37.0678 292.347,39.9011 292.5,47C 292.344,54.2592 288.677,56.9259 281.5,55C 276.272,49.5101 276.272,44.0101 281.5,38.5 Z"/></g>
<g><path style="opacity:0.998" fill="#e5eff2" d="M 343.5,33.5 C 343.5,34.5 343.5,35.5 343.5,36.5C 340.53,40.3197 337.696,44.3197 335,48.5C 334.501,52.1516 334.335,55.8183 334.5,59.5C 332.833,59.5 331.167,59.5 329.5,59.5C 329.665,55.8183 329.499,52.1516 329,48.5C 325.43,43.9847 322.43,39.318 320,34.5C 320.333,34.1667 320.667,33.8333 321,33.5C 322.399,34.2266 323.899,34.7266 325.5,35C 328.037,37.9063 330.204,41.073 332,44.5C 333.786,38.5439 337.62,34.8772 343.5,33.5 Z"/></g>
<g><path style="opacity:1" fill="#dcdfe9" d="M 264.5,59.5 C 262.833,59.5 261.167,59.5 259.5,59.5C 259.5,52.5 259.5,45.5 259.5,38.5C 257.143,38.6633 254.81,38.4966 252.5,38C 251.167,37 251.167,36 252.5,35C 259.158,34.5004 265.825,34.3337 272.5,34.5C 272.5,35.8333 272.5,37.1667 272.5,38.5C 269.813,38.3359 267.146,38.5026 264.5,39C 265.816,45.8331 265.816,52.6664 264.5,59.5 Z"/></g>
<g><path style="opacity:1" fill="#ecf3f4" d="M 159.5,59.5 C 157.5,59.5 155.5,59.5 153.5,59.5C 152.962,57.8828 152.629,56.2161 152.5,54.5C 148.774,54.1774 145.107,54.5108 141.5,55.5C 140.754,56.7362 140.421,58.0695 140.5,59.5C 133.167,59.5 125.833,59.5 118.5,59.5C 118.5,51.1667 118.5,42.8333 118.5,34.5C 120.167,34.5 121.833,34.5 123.5,34.5C 123.5,41.5 123.5,48.5 123.5,55.5C 127.437,55.2065 131.27,55.5399 135,56.5C 137.833,49.5 140.667,42.5 143.5,35.5C 145.743,34.5258 148.076,34.1924 150.5,34.5C 153.215,42.9306 156.215,51.2639 159.5,59.5 Z M 146.5,41.5 C 147.93,44.1974 149.263,47.0308 150.5,50C 148.098,50.8141 145.765,50.6474 143.5,49.5C 144.513,46.8122 145.513,44.1456 146.5,41.5 Z"/></g>
<g><path style="opacity:0.992" fill="#eaf3f5" d="M 255.5,59.5 C 253.5,59.5 251.5,59.5 249.5,59.5C 249.153,55.1616 246.82,53.4949 242.5,54.5C 238.176,53.4999 235.843,55.1666 235.5,59.5C 231.833,59.5 228.167,59.5 224.5,59.5C 223.018,54.7811 220.018,51.7811 215.5,50.5C 215.5,53.5 215.5,56.5 215.5,59.5C 213.833,59.5 212.167,59.5 210.5,59.5C 210.5,51.1667 210.5,42.8333 210.5,34.5C 215.511,34.3341 220.511,34.5007 225.5,35C 232.176,40.3518 231.843,45.3518 224.5,50C 226.458,52.7482 228.291,55.5815 230,58.5C 233.167,50.8333 236.333,43.1667 239.5,35.5C 241.421,34.359 243.421,34.1923 245.5,35C 249.252,43.0024 252.585,51.1691 255.5,59.5 Z M 242.5,41.5 C 243.719,44.2908 245.052,47.1241 246.5,50C 244.19,50.4966 241.857,50.6633 239.5,50.5C 240.216,47.4018 241.216,44.4018 242.5,41.5 Z M 215.5,38.5 C 218.685,38.0196 221.519,38.6863 224,40.5C 224.667,41.8333 224.667,43.1667 224,44.5C 221.333,45.1667 218.667,45.8333 216,46.5C 215.503,43.854 215.336,41.1873 215.5,38.5 Z"/></g>
<g><path style="opacity:1" fill="#edf5f7" d="M 176.5,59.5 C 171.167,59.5 165.833,59.5 160.5,59.5C 160.5,51.1667 160.5,42.8333 160.5,34.5C 165.844,34.334 171.177,34.5006 176.5,35C 181.02,38.6075 181.353,42.4409 177.5,46.5C 181.647,51.2558 181.314,55.5891 176.5,59.5 Z M 165.5,48.5 C 167.857,48.3367 170.19,48.5034 172.5,49C 175.699,50.679 176.033,52.679 173.5,55C 170.854,55.4974 168.187,55.6641 165.5,55.5C 165.5,53.1667 165.5,50.8333 165.5,48.5 Z M 165.5,38.5 C 168.187,38.3359 170.854,38.5026 173.5,39C 174.833,40.6667 174.833,42.3333 173.5,44C 170.854,44.4974 168.187,44.6641 165.5,44.5C 165.5,42.5 165.5,40.5 165.5,38.5 Z"/></g>
</svg>
